<svg viewBox="0 0 644 644" xmlns="http://www.w3.org/2000/svg"><rect width="644" height="644" rx="140" fill="#0a0a0a"/><path d="M318.574 386.094C323.133 376.151 327.972 366.968 332.618 357.137C338.184 345.366 342.975 334.36 349.858 323.261C363.78 301.196 384.566 284.312 409.018 275.204C440.857 263.332 479.786 265.137 510.662 279.301C537.74 291.547 558.804 314.097 569.173 341.941C579.928 370.016 578.756 401.262 565.935 428.454C565.145 430.163 561.371 437.702 560.117 438.891C558.014 442.745 554.524 447.35 551.784 450.758C537.272 468.887 517.528 482.11 495.238 488.629C488.705 490.523 482.054 491.992 475.329 493.038C478.992 485.658 482.129 477.854 485.749 470.746C489.393 463.157 493.819 452.337 497.863 445.473C499.043 443.466 510.3 435.445 513.645 432.299C520.932 425.452 522.383 420.775 527.363 413.706L527.485 413.542C534.603 395.346 535.311 393.673 534.76 373.408C531.101 351.738 521.856 334.779 503.712 322.182C460.349 292.08 399.027 308.727 378.3 357.671C377.259 360.127 375.985 362.805 374.834 365.204L359.052 398.619L314.828 493.8L276.85 493.851L245.167 425.613C240.975 416.536 236.771 406.489 232.33 397.629C223.951 417.089 214.313 437.353 205.432 456.69C201.179 466.038 196.855 475.355 192.459 484.636C191.189 487.324 189.526 491.438 188.25 493.863L150.288 493.835C138.27 470.113 126.197 442.272 114.946 417.941L68 318.175C83.6932 318.293 99.3875 318.289 115.081 318.163C122.295 334.501 129.735 350.738 137.397 366.87C140.682 373.814 144.117 380.478 147.352 387.512L161.99 419.576C164.124 424.246 166.935 430.934 169.206 435.261C185.502 399.235 202.176 363.382 219.225 327.706C226.614 326.33 236.395 325.504 244.423 324.206C246.142 328.86 249.611 335.763 251.768 340.432L269.213 377.35C275.973 391.808 282.243 406.803 289.161 421.243C291.331 425.767 293.28 430.853 295.489 435.257C296.177 434.149 297.494 431.439 297.887 430.885C298.398 429.473 299.113 427.761 299.762 426.42C306.216 413.09 311.849 399.281 318.574 386.094Z" fill="#fff"/><path d="M318.574 386.094C323.133 376.151 327.972 366.968 332.618 357.137C338.184 345.366 342.975 334.36 349.858 323.261C363.78 301.196 384.566 284.312 409.018 275.204C440.857 263.332 479.786 265.137 510.662 279.301C537.74 291.547 558.804 314.097 569.173 341.941C579.928 370.016 578.756 401.262 565.935 428.454C565.145 430.163 561.371 437.702 560.117 438.891C558.014 442.745 554.524 447.35 551.784 450.758C537.272 468.887 517.528 482.11 495.238 488.629C488.705 490.523 482.054 491.992 475.329 493.038C478.992 485.658 482.129 477.854 485.749 470.746C489.393 463.157 493.819 452.337 497.863 445.473C499.043 443.466 510.3 435.445 513.645 432.299C520.932 425.452 522.383 420.775 527.363 413.706L527.485 413.542C534.603 395.346 535.311 393.673 534.76 373.408C536.16 375.075 535.767 377.809 535.735 380.054L535.775 379.847L536.191 379.596C536.348 380.358 536.392 380.838 536.801 381.513C539.025 379.259 539.485 378.647 542.429 377.633L542.826 378.454C546.01 375.42 549.666 372.413 552.323 368.949C553.372 367.578 552.504 364.283 552.181 362.454L552.582 361.882C548.573 340.249 533.428 318.154 515.422 305.747C492.522 289.886 464.272 283.732 436.848 288.63C415.528 292.623 396.456 302.021 381.657 317.798C377.561 322.162 373.643 325.955 370.262 331.06C363.211 341.722 358.042 353.903 352.224 365.273C348.121 373.303 344.497 381.1 340.672 389.223C338.231 394.402 335.492 398.959 333.176 404.334C332.827 404.435 331.966 404.525 331.561 404.579C325.429 400.463 323.35 398.726 321.581 391.166C320.661 387.224 319.686 388.947 318.574 386.094Z" fill="#fff"/><path d="M485.749 470.746C500.127 466.644 512.509 460.071 523.884 450.489C526.518 448.272 528.845 445.467 531.471 443.519C531.585 444.211 531.785 444.399 532.186 444.962C537.095 445.425 542.252 446.993 546.93 448.554C549.229 449.32 546.91 451.972 547.303 453.315C549.532 452.829 557.877 441.161 559.41 438.715L560.117 438.891C558.014 442.745 554.524 447.35 551.784 450.758C537.272 468.887 517.528 482.11 495.238 488.629C488.705 490.523 482.054 491.992 475.329 493.038C478.992 485.658 482.129 477.854 485.749 470.746Z" fill="#fff"/><path d="M552.582 361.882C557.055 375.153 555.003 393.925 551.462 407.208C550.853 405.298 555.487 389.881 553.891 386.844C554.158 384.512 555.07 381.968 554.752 380.032L554.268 380.468C554.253 381.964 548.801 393.666 547.688 395.155C543.011 395.85 544.988 393.6 541.085 397.426C540.37 398.126 534.674 398.674 533.904 400.127C532.135 402.198 530.044 412.871 527.485 413.542C534.603 395.346 535.311 393.673 534.76 373.408C536.16 375.075 535.767 377.809 535.735 380.054L535.775 379.847L536.191 379.596C536.348 380.358 536.392 380.838 536.801 381.513C539.025 379.259 539.485 378.647 542.429 377.633L542.826 378.454C546.01 375.42 549.666 372.413 552.323 368.949C553.372 367.578 552.504 364.283 552.181 362.454L552.582 361.882Z" fill="#fff"/><path d="M297.887 430.885C298.398 429.473 299.113 427.761 299.762 426.42C306.216 413.09 311.849 399.281 318.574 386.094C319.686 388.947 320.661 387.224 321.581 391.166C323.35 398.726 325.429 400.463 331.561 404.579C331.966 404.525 332.827 404.435 333.176 404.334C332.296 406.61 319.124 434.147 318.279 434.537C319.309 431.406 327.772 414.908 327.638 414.163C324.305 414.534 322.304 413.039 319.836 415.455C316.793 414.777 316.636 412.504 316.306 409.902C316.164 408.76 315.072 407.589 314.341 406.7C315.783 403.548 318.507 396.294 317.273 392.93C312.953 395.999 315.756 398.016 313.951 400.948C313.091 401.567 312.882 401.668 311.896 402.06C309.714 405.942 300.395 429.255 297.887 430.885Z" fill="#fff"/><path d="M256.737 189.942C256.769 191.211 256.509 191.524 255.79 192.552C255.857 194.25 258.507 195.526 259.659 196.964L259.665 198.639C263.99 202.881 268.76 209.845 272.742 213.919C274.374 215.589 280.124 218.779 281.728 219.695C282.64 219.617 284.259 219.612 284.927 219.127L285.336 219.518C272.454 236.646 267.187 250.457 266.232 271.959C252.869 263.712 243.08 259.868 227.121 260.863C200.75 262.349 177.892 283.619 175.409 310.087C174.132 323.709 187.993 326.609 198.513 327.451C196.034 333.881 192.871 339.947 190.135 346.225C183.488 361.474 176.063 375.793 169.318 391.003C156.563 365.76 145.266 339.002 132.897 313.567C133.066 310.324 133.253 307.24 133.662 304.016C136.882 278.989 149.838 256.24 169.723 240.699C185.69 228.366 202.766 221.58 223.006 219.894C227.046 219.557 232.84 219.352 236.841 219.865C242.399 209.126 248.316 198.774 256.737 189.942Z" fill="#fff"/><path d="M256.737 189.942C258.924 186.926 264.125 182.048 266.932 179.59C283.795 164.73 304.561 155.011 326.777 151.581C357.641 146.46 389.271 153.894 414.62 172.227C437.948 189.179 458.337 217.817 462.802 246.564C462.912 247.272 463.002 247.984 463.073 248.697C445.271 248.62 439.3 249.318 421.703 252.265C410.21 209.973 369.067 182.16 325.457 193.846C307.285 198.715 298.162 206.36 285.336 219.518L284.927 219.127C284.259 219.612 282.64 219.617 281.728 219.695C280.124 218.779 274.374 215.589 272.742 213.919C268.76 209.845 263.99 202.881 259.665 198.639L259.659 196.964C258.507 195.526 255.857 194.25 255.79 192.552C256.509 191.524 256.769 191.211 256.737 189.942Z" fill="#fff"/><path d="M387.828 382.3C392.651 386.518 396.389 398.529 403.028 401.63C403.075 401.653 403.535 403.826 403.531 403.823C405.925 406.359 409.019 410.29 411.943 412.052C417.422 415.351 413.531 415.868 413.932 419.651C413.621 422.342 400.595 448.475 398.453 453.218C408.122 453.538 421.656 453.353 431.25 453.332C440.393 453.312 466.693 453.972 474.22 451.402C472.64 455.734 469.944 461.099 467.978 465.37C463.588 474.919 458.966 484.196 454.874 493.898C415.457 493.336 374.834 493.824 335.338 493.804C337.099 488.597 340.767 481.398 343.168 476.274L356.214 448.274L372.904 412.565C375.934 405.988 379.841 396.678 383.202 390.5C385.466 388.668 386.508 384.937 387.828 382.3Z" fill="#fff"/><path d="M402.627 257.043L404.616 256.977C404.164 257.569 401.307 258.446 400.403 258.81C371.921 270.309 346.643 291.874 331.073 318.369C324.45 329.643 317.91 345.407 312.132 357.342C306.64 368.69 300.921 379.992 295.859 391.425C292.69 384.238 289.625 377.12 285.839 370.231C282.53 363.978 279.511 356.826 276.591 350.375L262.497 319.609C290.391 311.193 303.783 298.945 327.524 283.728C350.078 268.987 375.824 259.839 402.627 257.043Z" fill="#fff"/><path d="M383.202 390.5C385.894 383.796 389.346 377.56 392.191 371.098C404.734 342.628 425.26 325.483 457.822 326.078C450.943 343.279 440.586 363.072 432.477 379.892C426.439 392.408 420.355 407.625 413.932 419.651C413.531 415.868 417.422 415.351 411.943 412.052C409.019 410.29 405.925 406.359 403.531 403.823C403.535 403.826 403.075 401.653 403.028 401.63C396.389 398.529 392.651 386.518 387.828 382.3C386.508 384.937 385.466 388.668 383.202 390.5Z" fill="#fff"/></svg>
